<svg width="50" height="30" viewBox="0 0 50 30" fill="none" xmlns="http://www.w3.org/2000/svg">
<path fill-rule="evenodd" clip-rule="evenodd" d="M0 2.25C0 1.65326 0.24693 1.08097 0.686468 0.659009C1.12601 0.237053 1.72215 0 2.34375 0H47.6562C48.2779 0 48.874 0.237053 49.3135 0.659009C49.7531 1.08097 50 1.65326 50 2.25C50 2.84674 49.7531 3.41903 49.3135 3.84099C48.874 4.26295 48.2779 4.5 47.6562 4.5H2.34375C1.72215 4.5 1.12601 4.26295 0.686468 3.84099C0.24693 3.41903 0 2.84674 0 2.25ZM0 15C0 14.4033 0.24693 13.831 0.686468 13.409C1.12601 12.9871 1.72215 12.75 2.34375 12.75H47.6562C48.2779 12.75 48.874 12.9871 49.3135 13.409C49.7531 13.831 50 14.4033 50 15C50 15.5967 49.7531 16.169 49.3135 16.591C48.874 17.0129 48.2779 17.25 47.6562 17.25H2.34375C1.72215 17.25 1.12601 17.0129 0.686468 16.591C0.24693 16.169 0 15.5967 0 15ZM2.34375 25.5C1.72215 25.5 1.12601 25.7371 0.686468 26.159C0.24693 26.581 0 27.1533 0 27.75C0 28.3467 0.24693 28.919 0.686468 29.341C1.12601 29.7629 1.72215 30 2.34375 30H47.6562C48.2779 30 48.874 29.7629 49.3135 29.341C49.7531 28.919 50 28.3467 50 27.75C50 27.1533 49.7531 26.581 49.3135 26.159C48.874 25.7371 48.2779 25.5 47.6562 25.5H2.34375Z" fill="white"/>
</svg>
